<svg width="866" height="171" viewBox="0 0 866 171" fill="none" xmlns="http://www.w3.org/2000/svg">
<path d="M0 59.314C0 27.8121 27.6008 3.40236 58.9708 6.28251C90.6888 9.1946 127.831 11.7673 150.463 10.5256C174.926 9.18341 216.653 6.2597 250.134 3.83353C278.131 1.8048 302 23.9478 302 52.0178V52.0178C302 78.6524 280.404 100.292 253.794 101.425C222.26 102.768 181.341 105.638 150.463 111.772C117.005 118.418 72.1175 113.57 40.0984 108.271C16.3689 104.345 0 83.3662 0 59.314V59.314Z" fill="url(#paint0_linear)"/>
<path d="M303.651 151.538L234.376 99.4135L287.169 66.4246L303.651 151.538Z" fill="#3F7E39"/>
<circle cx="42" cy="44" r="11" fill="#3A7635"/>
<circle cx="68" cy="75" r="7" fill="#3A7635"/>
<circle cx="213" cy="37" r="7" fill="#3A7635"/>
<circle cx="282" cy="50" r="7" fill="#3A7635"/>
<circle cx="142" cy="62" r="7" fill="#3A7635"/>
<circle cx="106.5" cy="91.5" r="9.5" fill="#3A7635"/>
<circle cx="175.5" cy="68.5" r="9.5" fill="#3A7635"/>
<circle cx="210.5" cy="77.5" r="9.5" fill="#3A7635"/>
<circle cx="106.5" cy="44.5" r="9.5" fill="#3A7635"/>
<circle cx="151.5" cy="33.5" r="9.5" fill="#3A7635"/>
<circle cx="250.5" cy="64.5" r="9.5" fill="#3A7635"/>
<circle cx="250.5" cy="26.5" r="9.5" fill="#3A7635"/>
<path d="M395.608 70.68C401.048 70.68 405.432 71.544 408.76 73.272C412.088 74.936 413.752 77.176 413.752 79.992C413.752 81.4 413.336 82.648 412.504 83.736C411.672 84.76 410.584 85.272 409.24 85.272C408.216 85.272 407.384 85.144 406.744 84.888C406.104 84.568 405.464 84.184 404.824 83.736C404.248 83.224 403.672 82.808 403.096 82.488C402.456 82.168 401.496 81.88 400.216 81.624C399 81.368 398.008 81.24 397.24 81.24C392.44 81.24 388.664 82.744 385.912 85.752C383.224 88.696 381.88 92.568 381.88 97.368C381.88 101.976 383.256 105.816 386.008 108.888C388.76 111.896 392.28 113.4 396.568 113.4C399.704 113.4 402.04 113.016 403.576 112.248C403.96 112.056 404.472 111.736 405.112 111.288C405.816 110.776 406.456 110.392 407.032 110.136C407.608 109.88 408.312 109.752 409.144 109.752C410.744 109.752 411.992 110.264 412.888 111.288C413.848 112.312 414.328 113.624 414.328 115.224C414.328 116.76 413.432 118.2 411.64 119.544C409.848 120.888 407.48 121.976 404.536 122.808C401.592 123.576 398.456 123.96 395.128 123.96C390.2 123.96 385.848 122.808 382.072 120.504C378.36 118.2 375.48 115.032 373.432 111C371.384 106.904 370.36 102.36 370.36 97.368C370.36 92.184 371.416 87.576 373.528 83.544C375.704 79.512 378.712 76.376 382.552 74.136C386.392 71.832 390.744 70.68 395.608 70.68ZM449.622 70.68C455.958 70.68 460.342 72.632 462.774 76.536C465.206 80.376 466.422 85.72 466.422 92.568V117.144C466.422 118.808 465.878 120.216 464.79 121.368C463.702 122.456 462.326 123 460.662 123C458.998 123 457.622 122.456 456.534 121.368C455.446 120.216 454.902 118.808 454.902 117.144V92.568C454.902 89.048 454.198 86.296 452.79 84.312C451.446 82.264 449.046 81.24 445.59 81.24C442.006 81.24 439.19 82.328 437.142 84.504C435.158 86.616 434.166 89.304 434.166 92.568V117.144C434.166 118.808 433.622 120.216 432.534 121.368C431.446 122.456 430.07 123 428.406 123C426.742 123 425.366 122.456 424.278 121.368C423.19 120.216 422.646 118.808 422.646 117.144V57.816C422.646 56.152 423.19 54.776 424.278 53.688C425.366 52.536 426.742 51.96 428.406 51.96C430.07 51.96 431.446 52.536 432.534 53.688C433.622 54.776 434.166 56.152 434.166 57.816V79.032C435.894 76.728 438.07 74.776 440.694 73.176C443.382 71.512 446.358 70.68 449.622 70.68ZM520.464 70.68C522.128 70.68 523.504 71.224 524.592 72.312C525.68 73.4 526.224 74.808 526.224 76.536V117.144C526.224 118.808 525.68 120.216 524.592 121.368C523.504 122.456 522.128 123 520.464 123C518.8 123 517.424 122.456 516.336 121.368C515.312 120.28 514.768 118.904 514.704 117.24C513.104 119.096 510.928 120.696 508.176 122.04C505.488 123.32 502.64 123.96 499.632 123.96C495.216 123.96 491.216 122.84 487.632 120.6C484.048 118.296 481.2 115.128 479.088 111.096C477.04 107.064 476.016 102.488 476.016 97.368C476.016 92.248 477.04 87.672 479.088 83.64C481.136 79.544 483.92 76.376 487.44 74.136C491.024 71.832 494.96 70.68 499.248 70.68C502.32 70.68 505.2 71.256 507.888 72.408C510.576 73.496 512.848 74.904 514.704 76.632V76.536C514.704 74.872 515.248 73.496 516.336 72.408C517.424 71.256 518.8 70.68 520.464 70.68ZM501.072 113.4C505.232 113.4 508.624 111.896 511.248 108.888C513.872 105.816 515.184 101.976 515.184 97.368C515.184 92.76 513.872 88.92 511.248 85.848C508.624 82.776 505.232 81.24 501.072 81.24C496.976 81.24 493.616 82.776 490.992 85.848C488.368 88.92 487.056 92.76 487.056 97.368C487.056 101.976 488.336 105.816 490.896 108.888C493.52 111.896 496.912 113.4 501.072 113.4ZM563.477 112.152C564.373 112.152 565.173 112.6 565.877 113.496C566.645 114.328 567.029 115.448 567.029 116.856C567.029 118.584 566.069 120.056 564.149 121.272C562.293 122.424 560.181 123 557.813 123C553.845 123 550.485 122.168 547.733 120.504C545.045 118.776 543.701 115.16 543.701 109.656V83.16H539.285C537.749 83.16 536.469 82.648 535.445 81.624C534.421 80.6 533.909 79.32 533.909 77.784C533.909 76.312 534.421 75.096 535.445 74.136C536.469 73.112 537.749 72.6 539.285 72.6H543.701V66.456C543.701 64.792 544.245 63.416 545.333 62.328C546.485 61.176 547.893 60.6 549.557 60.6C551.157 60.6 552.501 61.176 553.589 62.328C554.677 63.416 555.221 64.792 555.221 66.456V72.6H562.037C563.573 72.6 564.853 73.112 565.877 74.136C566.901 75.16 567.413 76.44 567.413 77.976C567.413 79.448 566.901 80.696 565.877 81.72C564.853 82.68 563.573 83.16 562.037 83.16H555.221V109.176C555.221 110.52 555.573 111.512 556.277 112.152C556.981 112.728 557.941 113.016 559.157 113.016C559.669 113.016 560.373 112.888 561.269 112.632C562.037 112.312 562.773 112.152 563.477 112.152ZM631.488 70.68C635.904 70.68 639.904 71.832 643.488 74.136C647.072 76.376 649.888 79.512 651.936 83.544C654.048 87.576 655.104 92.152 655.104 97.272C655.104 102.392 654.08 107 652.032 111.096C649.984 115.128 647.168 118.296 643.584 120.6C640.064 122.84 636.16 123.96 631.872 123.96C628.8 123.96 625.888 123.352 623.136 122.136C620.448 120.856 618.208 119.32 616.416 117.528V136.344C616.416 138.008 615.872 139.384 614.784 140.472C613.696 141.624 612.32 142.2 610.656 142.2C608.992 142.2 607.616 141.656 606.528 140.568C605.44 139.48 604.896 138.072 604.896 136.344V77.496C604.896 75.832 605.44 74.456 606.528 73.368C607.616 72.216 608.992 71.64 610.656 71.64C612.32 71.64 613.696 72.216 614.784 73.368C615.872 74.456 616.416 75.832 616.416 77.496V77.88C617.952 75.96 620.096 74.296 622.848 72.888C625.6 71.416 628.48 70.68 631.488 70.68ZM630.048 113.4C634.144 113.4 637.504 111.864 640.128 108.792C642.752 105.72 644.064 101.88 644.064 97.272C644.064 92.664 642.752 88.856 640.128 85.848C637.568 82.776 634.208 81.24 630.048 81.24C625.888 81.24 622.496 82.776 619.872 85.848C617.248 88.856 615.936 92.664 615.936 97.272C615.936 101.88 617.248 105.72 619.872 108.792C622.496 111.864 625.888 113.4 630.048 113.4ZM675.557 117.144C675.557 118.808 675.013 120.216 673.925 121.368C672.837 122.456 671.461 123 669.797 123C668.133 123 666.757 122.456 665.669 121.368C664.581 120.216 664.037 118.808 664.037 117.144V77.496C664.037 75.832 664.581 74.456 665.669 73.368C666.757 72.216 668.133 71.64 669.797 71.64C671.461 71.64 672.837 72.216 673.925 73.368C675.013 74.456 675.557 75.832 675.557 77.496V117.144ZM669.701 65.4C667.525 65.4 665.989 65.048 665.093 64.344C664.197 63.64 663.749 62.392 663.749 60.6V58.776C663.749 56.984 664.229 55.736 665.189 55.032C666.149 54.328 667.685 53.976 669.797 53.976C672.037 53.976 673.605 54.328 674.501 55.032C675.397 55.736 675.845 56.984 675.845 58.776V60.6C675.845 62.456 675.365 63.736 674.405 64.44C673.509 65.08 671.941 65.4 669.701 65.4ZM709.764 70.68C715.204 70.68 719.588 71.544 722.916 73.272C726.244 74.936 727.908 77.176 727.908 79.992C727.908 81.4 727.492 82.648 726.66 83.736C725.828 84.76 724.74 85.272 723.396 85.272C722.372 85.272 721.54 85.144 720.9 84.888C720.26 84.568 719.62 84.184 718.98 83.736C718.404 83.224 717.828 82.808 717.252 82.488C716.612 82.168 715.652 81.88 714.372 81.624C713.156 81.368 712.164 81.24 711.396 81.24C706.596 81.24 702.82 82.744 700.068 85.752C697.38 88.696 696.036 92.568 696.036 97.368C696.036 101.976 697.412 105.816 700.164 108.888C702.916 111.896 706.436 113.4 710.724 113.4C713.86 113.4 716.196 113.016 717.732 112.248C718.116 112.056 718.628 111.736 719.268 111.288C719.972 110.776 720.612 110.392 721.188 110.136C721.764 109.88 722.468 109.752 723.3 109.752C724.9 109.752 726.148 110.264 727.044 111.288C728.004 112.312 728.484 113.624 728.484 115.224C728.484 116.76 727.588 118.2 725.796 119.544C724.004 120.888 721.636 121.976 718.692 122.808C715.748 123.576 712.612 123.96 709.284 123.96C704.356 123.96 700.004 122.808 696.228 120.504C692.516 118.2 689.636 115.032 687.588 111C685.54 106.904 684.516 102.36 684.516 97.368C684.516 92.184 685.572 87.576 687.684 83.544C689.86 79.512 692.868 76.376 696.708 74.136C700.548 71.832 704.9 70.68 709.764 70.68ZM779.523 112.92C780.739 114.2 781.347 115.64 781.347 117.24C781.347 118.84 780.707 120.184 779.427 121.272C778.211 122.36 776.899 122.904 775.491 122.904C773.827 122.904 772.419 122.264 771.267 120.984L753.987 102.744L749.283 107.064V117.144C749.283 118.808 748.739 120.216 747.651 121.368C746.563 122.456 745.187 123 743.523 123C741.859 123 740.483 122.456 739.395 121.368C738.307 120.216 737.763 118.808 737.763 117.144V57.816C737.763 56.152 738.307 54.776 739.395 53.688C740.483 52.536 741.859 51.96 743.523 51.96C745.187 51.96 746.563 52.536 747.651 53.688C748.739 54.776 749.283 56.152 749.283 57.816V93.336L769.827 73.464C771.043 72.248 772.451 71.64 774.051 71.64C775.459 71.64 776.707 72.248 777.795 73.464C778.947 74.616 779.523 75.8 779.523 77.016C779.523 78.552 778.755 79.992 777.219 81.336L762.723 94.68L779.523 112.92ZM803.47 117.144C803.47 118.808 802.894 120.216 801.742 121.368C800.654 122.456 799.278 123 797.614 123C796.014 123 794.67 122.456 793.582 121.368C792.494 120.216 791.95 118.808 791.95 117.144V57.816C791.95 56.152 792.494 54.776 793.582 53.688C794.734 52.536 796.142 51.96 797.806 51.96C799.406 51.96 800.75 52.536 801.838 53.688C802.926 54.776 803.47 56.152 803.47 57.816V117.144ZM862.008 96.12C861.944 97.656 861.336 98.904 860.184 99.864C859.032 100.824 857.688 101.304 856.152 101.304H824.472C825.24 105.08 827 108.056 829.752 110.232C832.504 112.344 835.608 113.4 839.064 113.4C841.688 113.4 843.736 113.176 845.208 112.728C846.68 112.216 847.832 111.704 848.664 111.192C849.56 110.616 850.168 110.232 850.488 110.04C851.64 109.464 852.728 109.176 853.752 109.176C855.096 109.176 856.248 109.656 857.208 110.616C858.168 111.576 858.648 112.696 858.648 113.976C858.648 115.704 857.752 117.272 855.96 118.68C854.168 120.152 851.768 121.4 848.76 122.424C845.752 123.448 842.712 123.96 839.64 123.96C834.264 123.96 829.56 122.84 825.528 120.6C821.56 118.36 818.488 115.288 816.312 111.384C814.136 107.416 813.048 102.968 813.048 98.04C813.048 92.536 814.2 87.704 816.504 83.544C818.808 79.384 821.848 76.216 825.624 74.04C829.4 71.8 833.432 70.68 837.72 70.68C841.944 70.68 845.912 71.832 849.624 74.136C853.4 76.44 856.408 79.544 858.648 83.448C860.888 87.352 862.008 91.576 862.008 96.12ZM837.72 81.24C830.296 81.24 825.912 84.728 824.568 91.704H849.72V91.032C849.464 88.344 848.152 86.04 845.784 84.12C843.416 82.2 840.728 81.24 837.72 81.24Z" fill="white"/>
<defs>
<linearGradient id="paint0_linear" x1="16.6584" y1="6.74408e-06" x2="265.937" y2="103.964" gradientUnits="userSpaceOnUse">
<stop stop-color="#4B8E45"/>
<stop offset="1" stop-color="#3F7E39"/>
</linearGradient>
</defs>
</svg>
