<svg width="335" height="225" viewBox="0 0 335 225" fill="none" xmlns="http://www.w3.org/2000/svg">
<path d="M0 59.314C0 27.8121 27.6008 3.40236 58.9708 6.28251C90.6888 9.1946 127.831 11.7673 150.463 10.5256C174.926 9.18341 216.653 6.2597 250.134 3.83353C278.131 1.8048 302 23.9478 302 52.0178V52.0178C302 78.6524 280.404 100.292 253.794 101.425C222.26 102.768 181.341 105.638 150.463 111.772C117.005 118.418 72.1175 113.57 40.0984 108.271C16.3689 104.345 0 83.3662 0 59.314V59.314Z" fill="url(#paint0_linear)"/>
<path d="M303.651 151.538L234.376 99.4135L287.169 66.4246L303.651 151.538Z" fill="#3F7E39"/>
<circle cx="42" cy="44" r="11" fill="#3A7635"/>
<circle cx="68" cy="75" r="7" fill="#3A7635"/>
<circle cx="213" cy="37" r="7" fill="#3A7635"/>
<circle cx="282" cy="50" r="7" fill="#3A7635"/>
<circle cx="142" cy="62" r="7" fill="#3A7635"/>
<circle cx="106.5" cy="91.5" r="9.5" fill="#3A7635"/>
<circle cx="175.5" cy="68.5" r="9.5" fill="#3A7635"/>
<circle cx="210.5" cy="77.5" r="9.5" fill="#3A7635"/>
<circle cx="106.5" cy="44.5" r="9.5" fill="#3A7635"/>
<circle cx="151.5" cy="33.5" r="9.5" fill="#3A7635"/>
<circle cx="250.5" cy="64.5" r="9.5" fill="#3A7635"/>
<circle cx="250.5" cy="26.5" r="9.5" fill="#3A7635"/>
<path d="M51.9 184.75C54.7333 184.75 57.0167 185.2 58.75 186.1C60.4833 186.967 61.35 188.133 61.35 189.6C61.35 190.333 61.1333 190.983 60.7 191.55C60.2667 192.083 59.7 192.35 59 192.35C58.4667 192.35 58.0333 192.283 57.7 192.15C57.3667 191.983 57.0333 191.783 56.7 191.55C56.4 191.283 56.1 191.067 55.8 190.9C55.4667 190.733 54.9667 190.583 54.3 190.45C53.6667 190.317 53.15 190.25 52.75 190.25C50.25 190.25 48.2833 191.033 46.85 192.6C45.45 194.133 44.75 196.15 44.75 198.65C44.75 201.05 45.4667 203.05 46.9 204.65C48.3333 206.217 50.1667 207 52.4 207C54.0333 207 55.25 206.8 56.05 206.4C56.25 206.3 56.5167 206.133 56.85 205.9C57.2167 205.633 57.55 205.433 57.85 205.3C58.15 205.167 58.5167 205.1 58.95 205.1C59.7833 205.1 60.4333 205.367 60.9 205.9C61.4 206.433 61.65 207.117 61.65 207.95C61.65 208.75 61.1833 209.5 60.25 210.2C59.3167 210.9 58.0833 211.467 56.55 211.9C55.0167 212.3 53.3833 212.5 51.65 212.5C49.0833 212.5 46.8167 211.9 44.85 210.7C42.9167 209.5 41.4167 207.85 40.35 205.75C39.2833 203.617 38.75 201.25 38.75 198.65C38.75 195.95 39.3 193.55 40.4 191.45C41.5333 189.35 43.1 187.717 45.1 186.55C47.1 185.35 49.3667 184.75 51.9 184.75ZM80.0324 184.75C83.3324 184.75 85.6158 185.767 86.8824 187.8C88.1491 189.8 88.7824 192.583 88.7824 196.15V208.95C88.7824 209.817 88.4991 210.55 87.9324 211.15C87.3658 211.717 86.6491 212 85.7824 212C84.9158 212 84.1991 211.717 83.6324 211.15C83.0658 210.55 82.7824 209.817 82.7824 208.95V196.15C82.7824 194.317 82.4158 192.883 81.6824 191.85C80.9824 190.783 79.7324 190.25 77.9324 190.25C76.0658 190.25 74.5991 190.817 73.5324 191.95C72.4991 193.05 71.9824 194.45 71.9824 196.15V208.95C71.9824 209.817 71.6991 210.55 71.1324 211.15C70.5658 211.717 69.8491 212 68.9824 212C68.1158 212 67.3991 211.717 66.8324 211.15C66.2658 210.55 65.9824 209.817 65.9824 208.95V178.05C65.9824 177.183 66.2658 176.467 66.8324 175.9C67.3991 175.3 68.1158 175 68.9824 175C69.8491 175 70.5658 175.3 71.1324 175.9C71.6991 176.467 71.9824 177.183 71.9824 178.05V189.1C72.8824 187.9 74.0158 186.883 75.3824 186.05C76.7824 185.183 78.3324 184.75 80.0324 184.75ZM116.929 184.75C117.796 184.75 118.513 185.033 119.079 185.6C119.646 186.167 119.929 186.9 119.929 187.8V208.95C119.929 209.817 119.646 210.55 119.079 211.15C118.513 211.717 117.796 212 116.929 212C116.063 212 115.346 211.717 114.779 211.15C114.246 210.583 113.963 209.867 113.929 209C113.096 209.967 111.963 210.8 110.529 211.5C109.129 212.167 107.646 212.5 106.079 212.5C103.779 212.5 101.696 211.917 99.8293 210.75C97.9626 209.55 96.4793 207.9 95.3793 205.8C94.3126 203.7 93.7793 201.317 93.7793 198.65C93.7793 195.983 94.3126 193.6 95.3793 191.5C96.446 189.367 97.896 187.717 99.7293 186.55C101.596 185.35 103.646 184.75 105.879 184.75C107.479 184.75 108.979 185.05 110.379 185.65C111.779 186.217 112.963 186.95 113.929 187.85V187.8C113.929 186.933 114.213 186.217 114.779 185.65C115.346 185.05 116.063 184.75 116.929 184.75ZM106.829 207C108.996 207 110.763 206.217 112.129 204.65C113.496 203.05 114.179 201.05 114.179 198.65C114.179 196.25 113.496 194.25 112.129 192.65C110.763 191.05 108.996 190.25 106.829 190.25C104.696 190.25 102.946 191.05 101.579 192.65C100.213 194.25 99.5293 196.25 99.5293 198.65C99.5293 201.05 100.196 203.05 101.529 204.65C102.896 206.217 104.663 207 106.829 207ZM139.332 206.35C139.798 206.35 140.215 206.583 140.582 207.05C140.982 207.483 141.182 208.067 141.182 208.8C141.182 209.7 140.682 210.467 139.682 211.1C138.715 211.7 137.615 212 136.382 212C134.315 212 132.565 211.567 131.132 210.7C129.732 209.8 129.032 207.917 129.032 205.05V191.25H126.732C125.932 191.25 125.265 190.983 124.732 190.45C124.198 189.917 123.932 189.25 123.932 188.45C123.932 187.683 124.198 187.05 124.732 186.55C125.265 186.017 125.932 185.75 126.732 185.75H129.032V182.55C129.032 181.683 129.315 180.967 129.882 180.4C130.482 179.8 131.215 179.5 132.082 179.5C132.915 179.5 133.615 179.8 134.182 180.4C134.748 180.967 135.032 181.683 135.032 182.55V185.75H138.582C139.382 185.75 140.048 186.017 140.582 186.55C141.115 187.083 141.382 187.75 141.382 188.55C141.382 189.317 141.115 189.967 140.582 190.5C140.048 191 139.382 191.25 138.582 191.25H135.032V204.8C135.032 205.5 135.215 206.017 135.582 206.35C135.948 206.65 136.448 206.8 137.082 206.8C137.348 206.8 137.715 206.733 138.182 206.6C138.582 206.433 138.965 206.35 139.332 206.35ZM174.754 184.75C177.054 184.75 179.138 185.35 181.004 186.55C182.871 187.717 184.338 189.35 185.404 191.45C186.504 193.55 187.054 195.933 187.054 198.6C187.054 201.267 186.521 203.667 185.454 205.8C184.388 207.9 182.921 209.55 181.054 210.75C179.221 211.917 177.188 212.5 174.954 212.5C173.354 212.5 171.838 212.183 170.404 211.55C169.004 210.883 167.838 210.083 166.904 209.15V218.95C166.904 219.817 166.621 220.533 166.054 221.1C165.488 221.7 164.771 222 163.904 222C163.038 222 162.321 221.717 161.754 221.15C161.188 220.583 160.904 219.85 160.904 218.95V188.3C160.904 187.433 161.188 186.717 161.754 186.15C162.321 185.55 163.038 185.25 163.904 185.25C164.771 185.25 165.488 185.55 166.054 186.15C166.621 186.717 166.904 187.433 166.904 188.3V188.5C167.704 187.5 168.821 186.633 170.254 185.9C171.688 185.133 173.188 184.75 174.754 184.75ZM174.004 207C176.138 207 177.888 206.2 179.254 204.6C180.621 203 181.304 201 181.304 198.6C181.304 196.2 180.621 194.217 179.254 192.65C177.921 191.05 176.171 190.25 174.004 190.25C171.838 190.25 170.071 191.05 168.704 192.65C167.338 194.217 166.654 196.2 166.654 198.6C166.654 201 167.338 203 168.704 204.6C170.071 206.2 171.838 207 174.004 207ZM197.707 208.95C197.707 209.817 197.423 210.55 196.857 211.15C196.29 211.717 195.573 212 194.707 212C193.84 212 193.123 211.717 192.557 211.15C191.99 210.55 191.707 209.817 191.707 208.95V188.3C191.707 187.433 191.99 186.717 192.557 186.15C193.123 185.55 193.84 185.25 194.707 185.25C195.573 185.25 196.29 185.55 196.857 186.15C197.423 186.717 197.707 187.433 197.707 188.3V208.95ZM194.657 182C193.523 182 192.723 181.817 192.257 181.45C191.79 181.083 191.557 180.433 191.557 179.5V178.55C191.557 177.617 191.807 176.967 192.307 176.6C192.807 176.233 193.607 176.05 194.707 176.05C195.873 176.05 196.69 176.233 197.157 176.6C197.623 176.967 197.857 177.617 197.857 178.55V179.5C197.857 180.467 197.607 181.133 197.107 181.5C196.64 181.833 195.823 182 194.657 182ZM215.523 184.75C218.356 184.75 220.64 185.2 222.373 186.1C224.106 186.967 224.973 188.133 224.973 189.6C224.973 190.333 224.756 190.983 224.323 191.55C223.89 192.083 223.323 192.35 222.623 192.35C222.09 192.35 221.656 192.283 221.323 192.15C220.99 191.983 220.656 191.783 220.323 191.55C220.023 191.283 219.723 191.067 219.423 190.9C219.09 190.733 218.59 190.583 217.923 190.45C217.29 190.317 216.773 190.25 216.373 190.25C213.873 190.25 211.906 191.033 210.473 192.6C209.073 194.133 208.373 196.15 208.373 198.65C208.373 201.05 209.09 203.05 210.523 204.65C211.956 206.217 213.79 207 216.023 207C217.656 207 218.873 206.8 219.673 206.4C219.873 206.3 220.14 206.133 220.473 205.9C220.84 205.633 221.173 205.433 221.473 205.3C221.773 205.167 222.14 205.1 222.573 205.1C223.406 205.1 224.056 205.367 224.523 205.9C225.023 206.433 225.273 207.117 225.273 207.95C225.273 208.75 224.806 209.5 223.873 210.2C222.94 210.9 221.706 211.467 220.173 211.9C218.64 212.3 217.006 212.5 215.273 212.5C212.706 212.5 210.44 211.9 208.473 210.7C206.54 209.5 205.04 207.85 203.973 205.75C202.906 203.617 202.373 201.25 202.373 198.65C202.373 195.95 202.923 193.55 204.023 191.45C205.156 189.35 206.723 187.717 208.723 186.55C210.723 185.35 212.99 184.75 215.523 184.75ZM251.855 206.75C252.489 207.417 252.805 208.167 252.805 209C252.805 209.833 252.472 210.533 251.805 211.1C251.172 211.667 250.489 211.95 249.755 211.95C248.889 211.95 248.155 211.617 247.555 210.95L238.555 201.45L236.105 203.7V208.95C236.105 209.817 235.822 210.55 235.255 211.15C234.689 211.717 233.972 212 233.105 212C232.239 212 231.522 211.717 230.955 211.15C230.389 210.55 230.105 209.817 230.105 208.95V178.05C230.105 177.183 230.389 176.467 230.955 175.9C231.522 175.3 232.239 175 233.105 175C233.972 175 234.689 175.3 235.255 175.9C235.822 176.467 236.105 177.183 236.105 178.05V196.55L246.805 186.2C247.439 185.567 248.172 185.25 249.005 185.25C249.739 185.25 250.389 185.567 250.955 186.2C251.555 186.8 251.855 187.417 251.855 188.05C251.855 188.85 251.455 189.6 250.655 190.3L243.105 197.25L251.855 206.75ZM264.328 208.95C264.328 209.817 264.028 210.55 263.428 211.15C262.861 211.717 262.145 212 261.278 212C260.445 212 259.745 211.717 259.178 211.15C258.611 210.55 258.328 209.817 258.328 208.95V178.05C258.328 177.183 258.611 176.467 259.178 175.9C259.778 175.3 260.511 175 261.378 175C262.211 175 262.911 175.3 263.478 175.9C264.045 176.467 264.328 177.183 264.328 178.05V208.95ZM294.816 198C294.783 198.8 294.466 199.45 293.866 199.95C293.266 200.45 292.566 200.7 291.766 200.7H275.266C275.666 202.667 276.583 204.217 278.016 205.35C279.45 206.45 281.066 207 282.866 207C284.233 207 285.3 206.883 286.066 206.65C286.833 206.383 287.433 206.117 287.866 205.85C288.333 205.55 288.65 205.35 288.816 205.25C289.416 204.95 289.983 204.8 290.516 204.8C291.216 204.8 291.816 205.05 292.316 205.55C292.816 206.05 293.066 206.633 293.066 207.3C293.066 208.2 292.6 209.017 291.666 209.75C290.733 210.517 289.483 211.167 287.916 211.7C286.35 212.233 284.766 212.5 283.166 212.5C280.366 212.5 277.916 211.917 275.816 210.75C273.75 209.583 272.15 207.983 271.016 205.95C269.883 203.883 269.316 201.567 269.316 199C269.316 196.133 269.916 193.617 271.116 191.45C272.316 189.283 273.9 187.633 275.866 186.5C277.833 185.333 279.933 184.75 282.166 184.75C284.366 184.75 286.433 185.35 288.366 186.55C290.333 187.75 291.9 189.367 293.066 191.4C294.233 193.433 294.816 195.633 294.816 198ZM282.166 190.25C278.3 190.25 276.016 192.067 275.316 195.7H288.416V195.35C288.283 193.95 287.6 192.75 286.366 191.75C285.133 190.75 283.733 190.25 282.166 190.25Z" fill="white"/>
<defs>
<linearGradient id="paint0_linear" x1="16.6584" y1="6.74408e-06" x2="265.937" y2="103.964" gradientUnits="userSpaceOnUse">
<stop stop-color="#4B8E45"/>
<stop offset="1" stop-color="#3F7E39"/>
</linearGradient>
</defs>
</svg>
